<?xml version="1.0" encoding="UTF-8"?>
<!DOCTYPE svg PUBLIC "-//W3C//DTD SVG 1.1//EN" "http://www.w3.org/Graphics/SVG/1.1/DTD/svg11.dtd">
<!-- Creator: CorelDRAW 2021 (64-Bit) -->
<svg xmlns="http://www.w3.org/2000/svg" xml:space="preserve" width="325.614mm" height="71.6706mm" version="1.1" style="shape-rendering:geometricPrecision; text-rendering:geometricPrecision; image-rendering:optimizeQuality; fill-rule:evenodd; clip-rule:evenodd"
viewBox="0 0 12831.59 2824.35"
 xmlns:xlink="http://www.w3.org/1999/xlink"
 xmlns:xodm="http://www.corel.com/coreldraw/odm/2003">
 <defs>
  <style type="text/css">
   <![CDATA[
    .str0 {stroke:#0AB17D;stroke-width:7.88;stroke-linecap:round;stroke-linejoin:round;stroke-miterlimit:22.9256}
    .fil3 {fill:none}
    .fil2 {fill:#0AB17C}
    .fil0 {fill:#0AB17D}
    .fil1 {fill:#454E4B}
   ]]>
  </style>
 </defs>
 <g id="Layer_x0020_1">
  <metadata id="CorelCorpID_0Corel-Layer"/>
  <g id="_2047582633568">
   <path class="fil0" d="M3906.47 2031.94l-458.77 0 0 -389.26c196.32,0 722.91,-55.94 722.91,180.73l0 69.51c0,81.39 -164.88,139.02 -264.14,139.02zm-69.51 -653.4l-389.26 0 0 -361.45c294.32,0 681.2,-59.6 681.2,208.53 0,128.37 -159.19,152.92 -291.95,152.92zm-681.2 931.44l820.22 0c135.01,0 282.24,-51.39 357.63,-115.04 252.19,-212.93 137.89,-626.71 -79.59,-677.38l0 -27.8c51.66,-13.8 89.59,-61.5 121.67,-100.76 155.88,-190.71 10.81,-636.05 -399.72,-636.05l-820.22 0 0 1557.03z"/>
   <path class="fil1" d="M7604.42 2157.05c-316.22,0 -500.47,-262.71 -500.47,-556.08l0 -125.12c0,-278.09 185.38,-556.08 458.77,-556.08 578.56,0 600.66,733.1 400.88,1040.37 -65.79,101.2 -196.04,196.91 -359.17,196.91zm-514.38 -1098.26c0,-355.68 48.22,-305.84 -194.63,-305.84l0 2071.41 208.53 0 0 -792.42c138.8,159.69 174.59,305.84 569.98,305.84 377.79,0 611.69,-394.21 611.69,-778.52 0,-249.73 -43.91,-402.4 -155.38,-567.52 -185.32,-274.5 -579.4,-335.77 -851.47,-147.38 -118.47,82.04 -117.54,132.53 -188.73,214.43z"/>
   <path class="fil0" d="M1501.42 1587.07c0,885.41 882.44,880.02 1185.67,587.88 106.99,-103.08 190.64,-284.51 190.64,-490.57l0 -931.44 -291.95 0 0 820.22c0,148.7 -22.03,253.61 -78.5,352.46 -129.83,227.3 -700.01,235.31 -700.01,-269.05l0 -903.63 -305.84 0 0 834.12z"/>
   <path class="fil2" d="M-0 1475.85c0,268.51 42.58,497.14 236.31,667.32 248.06,217.9 616.72,267.58 933.85,141.39 69.46,-27.64 213.26,-117.56 247.84,-169.22l-197.78 -205.4c-196.38,129.44 -189.97,149.79 -455.62,149.79 -153.24,0 -267.68,-73.74 -344.35,-156.12 -173.49,-186.45 -174.34,-549.12 20.61,-751.5 143.88,-149.36 387.13,-188.27 598.31,-103.75 77.84,31.16 110.37,67.62 170.29,107.75l183.86 -191.53c-68.72,-101.06 -243.68,-191.78 -377.87,-226.14 -161.86,-41.45 -369.03,-22.47 -513.37,30.03 -137.73,50.09 -258.91,141.43 -343.71,254.08 -76.12,101.14 -158.38,282.85 -158.38,453.31z"/>
   <path class="fil1" d="M12094.78 919.77c237.13,0 405.84,59.39 488.61,303.8 20.46,60.44 24.03,129.56 39.67,196.67l-945.34 0c0,-260.57 196.21,-500.47 417.06,-500.47zm-639.5 611.69c0,428.65 235.02,806.32 667.3,806.32 200.02,0 327.16,-17.94 478.95,-132.74 91.66,-69.33 198.95,-191.73 202.25,-339.93 -267.7,0 -167.21,-22.91 -241.73,105.82 -25.5,44.04 -43.56,66.69 -85.69,95.03 -213.84,143.88 -537.96,117.02 -680.08,-69.18 -161.82,-212 -94.79,-331.2 -132.46,-409.71l1167.77 0c0,-327.44 -68.59,-618.3 -341.27,-770.9 -385.53,-215.75 -1035.03,-20.99 -1035.03,715.29z"/>
   <path class="fil1" d="M9078.03 2157.05c-118.6,0 -196.05,6.5 -298.52,-76.83 -155.44,-126.41 -130.91,-436.5 203.22,-477.24l526.27 -43.72c0,201.39 16.22,318.33 -86.48,427.9 -80.71,86.11 -183.04,169.89 -344.49,169.89zm-542.18 -945.34c261.55,0 181.38,12.9 232.27,-101.38 17.01,-38.2 46.88,-77.78 78.74,-101.99 221.83,-168.51 662.13,-99.42 662.13,203.37l0 194.63c-206.35,0 -523.24,11.02 -681.53,55.28 -549.35,153.58 -412.07,876.16 139.35,876.16 144.97,0 243.67,-18.58 364.57,-94.2 73.72,-46.11 118.97,-101.6 166.82,-166.83 12.88,-17.55 13.34,-17.84 24.69,-30.91l0 264.14 194.63 0 0 -1098.26c0,-271.07 -239.64,-472.67 -514.38,-472.67l-125.12 0c-278.21,0 -536.26,206.95 -542.18,472.67z"/>
   <path class="fil1" d="M5491.31 1128.3c0,154.81 -0.64,235.9 150.59,349.89 72.01,54.28 180.97,91.36 285.85,117.3 188.45,46.62 508.9,81.22 508.9,297.42 0,326.93 -581.48,367.69 -740.1,114.51 -35.38,-56.48 -28.34,-78.43 -52.32,-128.41l-208.53 0c25.37,52.87 -0.51,57.03 64.42,185.81 181.81,360.57 879.22,365.09 1089.22,22.49 101.52,-165.63 54.52,-365.4 -72.32,-483.31 -193.49,-179.87 -831.09,-136.83 -831.09,-434 0,-355.38 722.9,-359.38 722.9,27.8l208.53 0c-41.4,-177.68 -40.7,-202.17 -156.03,-316.63 -280.97,-278.86 -970.03,-134.64 -970.03,247.12z"/>
   <path class="fil1" d="M9953.86 1531.46c0,421 236.3,806.32 667.3,806.32 214.27,0 330.88,-23.2 488.79,-150.71 83.14,-67.14 189.25,-221.45 192.41,-363.67 -253.29,0 -175.31,-25 -245.18,116.28 -27.62,55.84 -47.28,78.37 -92.31,116.22 -341.27,286.92 -943.78,-18.09 -771.47,-743.66 138.64,-583.8 868.22,-445.82 900.42,-58.82l208.53 0c-22.26,-267.49 -290.69,-514.37 -583.89,-514.37 -252,0 -439.1,37.93 -592.23,241.89 -98.84,131.66 -172.38,327.47 -172.38,550.53z"/>
   <path class="fil2" d="M4851.81 2309.97l333.65 0 0 -1529.22c0,-32.03 -9.67,-41.7 -41.71,-41.7l-291.94 0 0 1570.93z"/>
   <polygon class="fil0" points="5043.48,594.98 4773.33,456.69 4773.33,160.81 5040.26,0 5300.77,147.94 5037.05,297.49 "/>
   <polyline class="fil3 str0" points="5043.48,594.98 5298,447.14 5298,150.71 5037.05,297.49 5298,447.14 "/>
  </g>
 </g>
</svg>
